<?xml version="1.0" encoding="utf-8"?>
<!-- Generator: Adobe Illustrator 16.0.0, SVG Export Plug-In . SVG Version: 6.00 Build 0)  -->
<!DOCTYPE svg PUBLIC "-//W3C//DTD SVG 1.1//EN" "http://www.w3.org/Graphics/SVG/1.1/DTD/svg11.dtd">
<svg version="1.1" id="Layer_1" xmlns="http://www.w3.org/2000/svg" xmlns:xlink="http://www.w3.org/1999/xlink" x="0px" y="0px"
	 width="30px" height="30px" viewBox="0 0 30 30" enable-background="new 0 0 30 30" xml:space="preserve">
<g>
	<path fill="#FFFFFF" stroke="#000000" stroke-width="4" stroke-miterlimit="10" d="M15,15"/>
	<g>
		<path fill="#FFFFFF" d="M3,11.907C4.408,6.68,9.184,2.834,14.856,2.833c6.164,0,11.269,4.545,12.144,10.464"/>
		<g>
			<path fill="none" stroke="#000000" stroke-width="4" stroke-miterlimit="10" d="M8.032,4.903c1.952-1.307,4.299-2.069,6.824-2.07
				c6.164,0,11.269,4.545,12.144,10.464"/>
			<g>
				<polygon points="14.174,7.629 3,11.908 4.881,0.091 				"/>
			</g>
		</g>
	</g>
	<g>
		<path fill="#FFFFFF" d="M27,18.093c-1.409,5.228-6.184,9.072-11.856,9.073C8.98,27.166,3.878,22.62,3,16.704"/>
		<g>
			<path fill="none" stroke="#000000" stroke-width="4" stroke-miterlimit="10" d="M21.968,25.097
				c-1.951,1.307-4.299,2.069-6.824,2.069C8.98,27.166,3.878,22.62,3,16.704"/>
			<g>
				<polygon points="15.826,22.37 27,18.093 25.118,29.909 				"/>
			</g>
		</g>
	</g>
</g>
</svg>
