<?xml version="1.0" encoding="utf-8"?>
<!-- Generator: Adobe Illustrator 16.0.0, SVG Export Plug-In . SVG Version: 6.00 Build 0)  -->
<!DOCTYPE svg PUBLIC "-//W3C//DTD SVG 1.1//EN" "http://www.w3.org/Graphics/SVG/1.1/DTD/svg11.dtd">
<svg version="1.1" id="Layer_1" xmlns="http://www.w3.org/2000/svg" xmlns:xlink="http://www.w3.org/1999/xlink" x="0px" y="0px"
	 width="30px" height="30px" viewBox="0 0 30 30" enable-background="new 0 0 30 30" xml:space="preserve">
<g>
	<path d="M13.762,15.836c0.513-1.216,0.948-2.17,1.304-2.861c0.268-0.514,0.52-0.946,0.754-1.298s0.518-0.695,0.854-1.03
		c0.333-0.334,0.719-0.586,1.154-0.752c0.437-0.169,0.922-0.252,1.458-0.252h4.283v3.214c0,0.145,0.055,0.271,0.161,0.378
		c0.104,0.105,0.23,0.159,0.375,0.159c0.158,0,0.284-0.051,0.386-0.151l5.356-5.357C29.949,7.785,30,7.656,30,7.499
		c0-0.154-0.051-0.283-0.152-0.385l-5.341-5.34c-0.133-0.111-0.267-0.167-0.401-0.167c-0.155,0-0.282,0.05-0.386,0.15
		c-0.097,0.101-0.15,0.229-0.15,0.386v3.213h-4.283c-0.759,0-1.474,0.092-2.144,0.277c-0.669,0.184-1.265,0.418-1.784,0.703
		c-0.518,0.284-1.021,0.666-1.507,1.146c-0.485,0.479-0.897,0.943-1.238,1.39c-0.34,0.445-0.698,1.005-1.072,1.674
		c-0.374,0.668-0.675,1.256-0.903,1.758c-0.229,0.503-0.505,1.121-0.83,1.857c-0.513,1.217-0.948,2.171-1.306,2.864
		c-0.267,0.511-0.519,0.945-0.752,1.297c-0.235,0.352-0.52,0.694-0.854,1.028c-0.335,0.337-0.72,0.586-1.156,0.755
		c-0.434,0.167-0.92,0.25-1.456,0.25h-3.75c-0.156,0-0.285,0.05-0.385,0.15C0.05,20.608,0,20.735,0,20.893v3.215
		c0,0.157,0.051,0.283,0.151,0.386c0.1,0.1,0.229,0.15,0.385,0.15h3.75c0.76,0,1.474-0.093,2.143-0.278
		c0.669-0.183,1.265-0.417,1.783-0.704c0.519-0.282,1.022-0.665,1.508-1.146c0.485-0.479,0.897-0.941,1.239-1.387
		c0.34-0.447,0.696-1.005,1.07-1.676c0.374-0.668,0.675-1.254,0.904-1.757C13.162,17.191,13.438,16.573,13.762,15.836L13.762,15.836
		z M13.762,15.836"/>
	<path d="M0.535,9.643h3.75c0.491,0,0.945,0.081,1.364,0.242c0.419,0.162,0.771,0.358,1.055,0.587
		c0.284,0.229,0.569,0.543,0.854,0.946c0.284,0.4,0.509,0.756,0.677,1.062c0.167,0.308,0.374,0.712,0.62,1.215
		c0.859-2.021,1.624-3.544,2.294-4.57C9.364,6.613,7.075,5.357,4.286,5.357h-3.75c-0.156,0-0.285,0.051-0.385,0.15
		C0.05,5.608,0,5.736,0,5.894v3.213c0,0.157,0.05,0.286,0.15,0.386C0.25,9.593,0.379,9.643,0.535,9.643L0.535,9.643z M0.535,9.643"
		/>
	<path d="M24.507,16.773c-0.133-0.111-0.267-0.166-0.401-0.166c-0.155,0-0.284,0.049-0.385,0.15
		c-0.098,0.102-0.151,0.228-0.151,0.386v3.214h-4.283c-0.492,0-0.947-0.081-1.366-0.244c-0.417-0.16-0.769-0.354-1.055-0.586
		c-0.284-0.229-0.566-0.543-0.854-0.944c-0.284-0.403-0.509-0.757-0.677-1.063c-0.167-0.308-0.374-0.714-0.62-1.215
		c-0.859,2.01-1.618,3.533-2.275,4.57c0.3,0.437,0.612,0.823,0.937,1.165c0.323,0.339,0.63,0.639,0.921,0.894
		c0.29,0.257,0.619,0.482,0.988,0.671c0.367,0.189,0.693,0.347,0.97,0.477c0.281,0.128,0.632,0.231,1.055,0.309
		c0.426,0.081,0.781,0.139,1.072,0.176c0.29,0.04,0.686,0.067,1.188,0.086c0.503,0.016,0.909,0.022,1.221,0.016
		c0.314-0.006,0.766-0.012,1.357-0.016c0.592-0.006,1.065-0.009,1.421-0.009v3.213c0,0.146,0.055,0.272,0.161,0.376
		c0.104,0.107,0.23,0.161,0.376,0.161c0.157,0,0.284-0.05,0.385-0.151l5.357-5.356C29.949,22.782,30,22.657,30,22.5
		c0-0.158-0.051-0.284-0.152-0.386L24.507,16.773z M24.507,16.773"/>
</g>
</svg>
